<svg width="24" height="24" viewBox="0 0 24 24" fill="none" xmlns="http://www.w3.org/2000/svg">
<path d="M7.5 15.5H19.5V17.5H7.5V15.5Z" fill="currentColor"/>
<path d="M5.5 7.5H17.5V9.5H5.5V7.5Z" fill="currentColor"/>
<path d="M5 16.5C5 15.1193 6.11929 14 7.5 14C8.88071 14 10 15.1193 10 16.5C10 17.8807 8.88071 19 7.5 19C6.11929 19 5 17.8807 5 16.5Z" fill="currentColor"/>
<path d="M15 8.5C15 7.11929 16.1193 6 17.5 6C18.8807 6 20 7.11929 20 8.5C20 9.88071 18.8807 11 17.5 11C16.1193 11 15 9.88071 15 8.5Z" fill="currentColor"/>
</svg>
